<?xml version="1.0" encoding="iso-8859-1"?>
<!-- Generator: Adobe Illustrator 19.0.0, SVG Export Plug-In . SVG Version: 6.00 Build 0)  -->
<svg version="1.1" id="Capa_1" xmlns="http://www.w3.org/2000/svg" xmlns:xlink="http://www.w3.org/1999/xlink" x="0px" y="0px"
	 viewBox="0 0 496 496" style="enable-background:new 0 0 496 496;" xml:space="preserve">
<linearGradient id="SVGID_1_" gradientUnits="userSpaceOnUse" x1="-55.8954" y1="558.6053" x2="42.6446" y2="657.1434" gradientTransform="matrix(8 0 0 -8 399 5013)">
	<stop  offset="0" style="stop-color:#003F8A"/>
	<stop  offset="0.518" style="stop-color:#00D7DF"/>
	<stop  offset="1" style="stop-color:#006DF0"/>
</linearGradient>
<path style="fill:url(#SVGID_1_);" d="M248,0C111.033,0,0,111.033,0,248s111.033,248,248,248s248-111.033,248-248
	C495.841,111.099,384.901,0.159,248,0z M248,480C119.87,480,16,376.13,16,248S119.87,16,248,16s232,103.87,232,232
	C479.859,376.072,376.072,479.859,248,480z"/>
<linearGradient id="SVGID_2_" gradientUnits="userSpaceOnUse" x1="-56.9016" y1="559.6116" x2="41.6384" y2="658.1495" gradientTransform="matrix(8 0 0 -8 399 5013)">
	<stop  offset="0" style="stop-color:#003F8A"/>
	<stop  offset="0.518" style="stop-color:#00D7DF"/>
	<stop  offset="1" style="stop-color:#006DF0"/>
</linearGradient>
<path style="fill:url(#SVGID_2_);" d="M256,244.688V72c0-4.418-3.582-8-8-8s-8,3.582-8,8v176c0,2.122,0.844,4.156,2.344,5.656l72,72
	c3.178,3.07,8.242,2.982,11.312-0.196c2.995-3.1,2.995-8.016,0-11.116L256,244.688z"/>
<linearGradient id="SVGID_3_" gradientUnits="userSpaceOnUse" x1="-55.8954" y1="558.6053" x2="42.6446" y2="657.1434" gradientTransform="matrix(8 0 0 -8 399 5013)">
	<stop  offset="0" style="stop-color:#003F8A"/>
	<stop  offset="0.518" style="stop-color:#00D7DF"/>
	<stop  offset="1" style="stop-color:#006DF0"/>
</linearGradient>
<path style="fill:url(#SVGID_3_);" d="M248,32C128.706,32,32,128.706,32,248s96.706,216,216,216s216-96.706,216-216
	C463.868,128.761,367.239,32.132,248,32z M248,448c-110.457,0-200-89.543-200-200S137.543,48,248,48s200,89.543,200,200
	C447.877,358.406,358.406,447.877,248,448z"/>
<g>
</g>
<g>
</g>
<g>
</g>
<g>
</g>
<g>
</g>
<g>
</g>
<g>
</g>
<g>
</g>
<g>
</g>
<g>
</g>
<g>
</g>
<g>
</g>
<g>
</g>
<g>
</g>
<g>
</g>
</svg>
